<svg width="566" height="781" viewBox="0 0 566 781" fill="none" xmlns="http://www.w3.org/2000/svg">
<path d="M290 495V405.5L199.5 356.5V294.5L290 240L385 294.5H565.5V166.5L279.5 1L1 166.5V613L290 780L565.5 613V374.5H461V447.5H487V564.5L279.5 686.5L80 564.5V211.5L279.5 92L487 211.5V261.5L279.5 145L126 240V405.5L290 495Z" fill="#023047" stroke="#023047"/>
<path d="M285 283.5L252 304V355.5L359.5 419V495L279.5 540L124.5 453V545.5L285 636.5L441 545.5V375.5L285 283.5Z" fill="#FB8500" stroke="#FB8500"/>
</svg>
